<?xml version="1.0" encoding="iso-8859-1"?><!-- Generator: Adobe Illustrator 20.1.0, SVG Export Plug-In . SVG Version: 6.00 Build 0)  --><svg version="1.1" id="_x3C_Vrstva_x3E_" xmlns="http://www.w3.org/2000/svg" xmlns:xlink="http://www.w3.org/1999/xlink" x="0px"	 y="0px" viewBox="0 0 109.779 48.339" style="enable-background:new 0 0 109.779 48.339;" xml:space="preserve" ><path style="fill:#005092;" d="M6.468,30.1c-0.004,1.436-1.133,2.152-2.276,2.152c-1.145,0-2.225-0.752-2.268-2.24l0.029-16.499	c0.005-1.434,1.092-2.144,2.28-2.144c1.185,0,2.269,0.746,2.267,2.234L6.468,30.1z"/><g>	<g>		<path style="fill:#005092;" d="M21.816,46.436v0.092c0,0.777,0.3,1.154,0.874,1.154c0.636,0,0.886-0.42,0.886-1.322v-1.117			c-0.207,0.404-0.574,0.615-1.057,0.615c-1.198,0-1.548-1.09-1.548-3.399c0-2.047,0.454-3.045,1.523-3.045			c0.483,0,0.848,0.236,1.094,0.668l-0.012-0.59h0.767v6.287c0,0.801-0.012,1.365-0.207,1.732c-0.286,0.539-0.767,0.826-1.433,0.826			c-0.991,0-1.588-0.656-1.588-1.799v-0.104H21.816z M22.702,45.257c0.729,0,0.925-0.844,0.925-2.588			c0-1.746-0.196-2.598-0.925-2.598c-0.769,0-0.949,0.84-0.949,2.598C21.753,44.44,21.933,45.257,22.702,45.257z"/>		<path style="fill:#005092;" d="M26.922,37.577c0,0.301-0.26,0.578-0.585,0.578c-0.314,0-0.575-0.277-0.575-0.594			c0-0.312,0.25-0.562,0.575-0.562C26.674,36.999,26.922,37.263,26.922,37.577z M26.727,39.493v6.287h-0.782v-6.287H26.727z"/>		<path style="fill:#005092;" d="M28.578,39.493l0.794,4.031c0.079,0.418,0.17,0.955,0.247,1.611			c0.066-0.432,0.183-0.984,0.314-1.611l0.82-4.031h0.781l-1.497,6.287h-0.847l-1.42-6.287H28.578z"/>		<path style="fill:#005092;" d="M33.344,37.577c0,0.301-0.261,0.578-0.585,0.578c-0.315,0-0.573-0.277-0.573-0.594			c0-0.312,0.246-0.562,0.573-0.562C33.096,36.999,33.344,37.263,33.344,37.577z M33.149,39.493v6.287h-0.781v-6.287H33.149z"/>		<path style="fill:#005092;" d="M35.547,39.493v0.578c0.286-0.449,0.702-0.656,1.195-0.656c0.925,0,1.264,0.656,1.264,2.01v4.355			H37.24v-4.475c0-0.906-0.158-1.287-0.771-1.287c-0.598,0-0.922,0.539-0.922,1.576v4.186h-0.769v-6.287H35.547z"/>		<path style="fill:#005092;" d="M40.118,46.436v0.092c0,0.777,0.299,1.154,0.871,1.154c0.638,0,0.887-0.42,0.887-1.322v-1.117			c-0.209,0.404-0.573,0.615-1.056,0.615c-1.198,0-1.55-1.09-1.55-3.399c0-2.047,0.456-3.045,1.525-3.045			c0.481,0,0.845,0.236,1.093,0.668l-0.012-0.59h0.768v6.287c0,0.801-0.013,1.365-0.209,1.732c-0.286,0.539-0.768,0.826-1.434,0.826			c-0.991,0-1.589-0.656-1.589-1.799v-0.104H40.118z M41.002,45.257c0.73,0,0.925-0.844,0.925-2.588			c0-1.746-0.195-2.598-0.925-2.598c-0.768,0-0.95,0.84-0.95,2.598C40.052,44.44,40.235,45.257,41.002,45.257z"/>		<path style="fill:#005092;" d="M49.145,45.204c-0.21,0.443-0.614,0.695-1.107,0.695c-1.136,0-1.526-1.117-1.526-3.412			c0-2.064,0.445-3.072,1.526-3.072c0.482,0,0.845,0.236,1.092,0.668v-0.59h0.757v6.287h-0.742V45.204z M48.246,45.257			c0.729,0,0.925-0.844,0.925-2.588c0-1.746-0.196-2.598-0.925-2.598c-0.769,0-0.953,0.84-0.953,2.598			C47.294,44.44,47.477,45.257,48.246,45.257z"/>		<path style="fill:#005092;" d="M53.273,40.136v-0.643h0.715v-1.982c0-1.209,0.327-1.773,1.147-1.773			c0.208,0,0.441,0.027,0.704,0.105v0.893c-0.195-0.182-0.378-0.273-0.573-0.273c-0.47,0-0.508,0.365-0.508,1.129v1.902h1.082v0.643			h-1.082v5.645h-0.77v-5.645H53.273z"/>		<path style="fill:#005092;" d="M58.888,45.204c-0.207,0.443-0.611,0.695-1.106,0.695c-1.134,0-1.525-1.117-1.525-3.412			c0-2.064,0.442-3.072,1.525-3.072c0.481,0,0.847,0.236,1.096,0.668v-0.59h0.753v6.287h-0.742V45.204z M57.989,45.257			c0.729,0,0.924-0.844,0.924-2.588c0-1.746-0.195-2.598-0.924-2.598c-0.77,0-0.952,0.84-0.952,2.598			C57.037,44.44,57.22,45.257,57.989,45.257z"/>		<path style="fill:#005092;" d="M63.735,40.558c-0.237-0.289-0.47-0.422-0.769-0.422c-0.823,0-1.147,0.863-1.147,2.65			c0,1.551,0.375,2.34,1.121,2.34c0.325,0,0.586-0.162,0.782-0.475v0.918c-0.288,0.197-0.575,0.289-0.912,0.289			c-1.057,0-1.774-1.09-1.774-3.111c0-2.217,0.649-3.332,1.93-3.332c0.286,0,0.56,0.092,0.769,0.236V40.558z"/>		<path style="fill:#005092;" d="M65.245,42.827v0.209c0,1.432,0.39,2.193,1.004,2.193c0.494,0,0.871-0.553,0.897-1.537h0.744			c-0.065,1.416-0.729,2.207-1.654,2.207c-1.16,0-1.745-1.08-1.745-3.215c0-2.154,0.69-3.31,1.785-3.31			c1.106,0,1.694,1.09,1.694,3.242v0.211H65.245z M66.3,40.083c-0.6,0-1.002,0.709-1.055,2.1h1.992			C67.224,40.806,66.862,40.083,66.3,40.083z"/>		<path style="fill:#005092;" d="M71.276,40.136v-0.643h0.652v-1.76h0.766v1.76h1.029v0.643h-1.029v5.645h-0.766v-5.645H71.276z"/>		<path style="fill:#005092;" d="M76.018,39.362c1.146,0,1.772,1.102,1.772,3.27c0,2.164-0.613,3.268-1.772,3.268			c-1.187,0-1.8-1.09-1.8-3.268C74.218,40.45,74.831,39.362,76.018,39.362z M75.014,42.632c0,1.756,0.274,2.611,0.991,2.611			c0.678,0,0.99-0.855,0.99-2.601c0-1.742-0.313-2.611-0.99-2.611C75.288,40.03,75.014,40.872,75.014,42.632z"/>		<path style="fill:#005092;" d="M81.8,36.421h0.848v9.359H81.8V36.421z"/>		<path style="fill:#005092;" d="M83.794,37.183v-0.762h3.736v0.762h-1.445v8.598h-0.846v-8.598H83.794z"/>		<path style="fill:#005092;" d="M92.013,37.577c0,0.301-0.26,0.578-0.588,0.578c-0.313,0-0.572-0.277-0.572-0.594			c0-0.312,0.248-0.562,0.572-0.562C91.765,36.999,92.013,37.263,92.013,37.577z M91.815,39.493v6.287h-0.779v-6.287H91.815z"/>		<path style="fill:#005092;" d="M95.804,45.204c-0.209,0.443-0.612,0.695-1.107,0.695c-1.134,0-1.525-1.117-1.525-3.412			c0-2.064,0.444-3.072,1.525-3.072c0.482,0,0.859,0.223,1.079,0.643v-4.215h0.769v9.938h-0.74V45.204z M94.905,45.257			c0.729,0,0.924-0.844,0.924-2.588c0-1.746-0.195-2.598-0.924-2.598c-0.771,0-0.953,0.84-0.953,2.598			C93.952,44.44,94.135,45.257,94.905,45.257z"/>		<path style="fill:#005092;" d="M98.589,42.827v0.209c0,1.432,0.392,2.193,1.004,2.193c0.496,0,0.873-0.553,0.898-1.537h0.742			c-0.063,1.416-0.729,2.207-1.654,2.207c-1.158,0-1.744-1.08-1.744-3.215c0-2.154,0.691-3.31,1.783-3.31			c1.107,0,1.693,1.09,1.693,3.242v0.211H98.589z M99.646,40.083c-0.6,0-1.004,0.709-1.057,2.1h1.994			C100.571,40.806,100.205,40.083,99.646,40.083z"/>		<path style="fill:#005092;" d="M104.842,45.204c-0.208,0.443-0.611,0.695-1.106,0.695c-1.133,0-1.523-1.117-1.523-3.412			c0-2.064,0.441-3.072,1.523-3.072c0.482,0,0.848,0.236,1.095,0.668v-0.59h0.753v6.287h-0.741V45.204z M103.942,45.257			c0.73,0,0.926-0.844,0.926-2.588c0-1.746-0.195-2.598-0.926-2.598c-0.768,0-0.949,0.84-0.949,2.598			C102.993,44.44,103.175,45.257,103.942,45.257z"/>		<path style="fill:#005092;" d="M108.06,45.204c0.574,0,0.978-0.408,0.978-0.988c0-0.563-0.419-0.893-1.043-1.43			c-0.73-0.631-1.2-1.074-1.2-1.863c0-0.893,0.641-1.533,1.54-1.533c0.375,0,0.74,0.104,1.105,0.326v0.799			c-0.326-0.313-0.689-0.471-1.029-0.471c-0.508,0-0.885,0.369-0.885,0.855c0,0.525,0.377,0.824,0.937,1.299			c0.809,0.682,1.316,1.154,1.316,2.008c0,0.998-0.704,1.719-1.669,1.719c-0.441,0-0.883-0.158-1.236-0.457v-0.92			C107.265,44.993,107.669,45.204,108.06,45.204z"/>	</g>	<g>		<path style="fill:#005597;" d="M21.816,46.436v0.092c0,0.777,0.3,1.154,0.874,1.154c0.636,0,0.886-0.42,0.886-1.322v-1.117			c-0.207,0.404-0.574,0.615-1.057,0.615c-1.198,0-1.548-1.09-1.548-3.399c0-2.047,0.454-3.045,1.523-3.045			c0.483,0,0.848,0.236,1.094,0.668l-0.012-0.59h0.767v6.287c0,0.801-0.012,1.365-0.207,1.732c-0.286,0.539-0.767,0.826-1.433,0.826			c-0.991,0-1.588-0.656-1.588-1.799v-0.104H21.816z M22.702,45.257c0.729,0,0.925-0.844,0.925-2.588			c0-1.746-0.196-2.598-0.925-2.598c-0.769,0-0.949,0.84-0.949,2.598C21.753,44.44,21.933,45.257,22.702,45.257z"/>		<path style="fill:#005597;" d="M26.922,37.577c0,0.301-0.26,0.578-0.585,0.578c-0.314,0-0.575-0.277-0.575-0.594			c0-0.312,0.25-0.562,0.575-0.562C26.674,36.999,26.922,37.263,26.922,37.577z M26.727,39.493v6.287h-0.782v-6.287H26.727z"/>		<path style="fill:#005597;" d="M28.578,39.493l0.794,4.031c0.079,0.418,0.17,0.955,0.247,1.611			c0.066-0.432,0.183-0.984,0.314-1.611l0.82-4.031h0.781l-1.497,6.287h-0.847l-1.42-6.287H28.578z"/>		<path style="fill:#005597;" d="M33.344,37.577c0,0.301-0.261,0.578-0.585,0.578c-0.315,0-0.573-0.277-0.573-0.594			c0-0.312,0.246-0.562,0.573-0.562C33.096,36.999,33.344,37.263,33.344,37.577z M33.149,39.493v6.287h-0.781v-6.287H33.149z"/>		<path style="fill:#005597;" d="M35.547,39.493v0.578c0.286-0.449,0.702-0.656,1.195-0.656c0.925,0,1.264,0.656,1.264,2.01v4.355			H37.24v-4.475c0-0.906-0.158-1.287-0.771-1.287c-0.598,0-0.922,0.539-0.922,1.576v4.186h-0.769v-6.287H35.547z"/>		<path style="fill:#005597;" d="M40.118,46.436v0.092c0,0.777,0.299,1.154,0.871,1.154c0.638,0,0.887-0.42,0.887-1.322v-1.117			c-0.209,0.404-0.573,0.615-1.056,0.615c-1.198,0-1.55-1.09-1.55-3.399c0-2.047,0.456-3.045,1.525-3.045			c0.481,0,0.845,0.236,1.093,0.668l-0.012-0.59h0.768v6.287c0,0.801-0.013,1.365-0.209,1.732c-0.286,0.539-0.768,0.826-1.434,0.826			c-0.991,0-1.589-0.656-1.589-1.799v-0.104H40.118z M41.002,45.257c0.73,0,0.925-0.844,0.925-2.588			c0-1.746-0.195-2.598-0.925-2.598c-0.768,0-0.95,0.84-0.95,2.598C40.052,44.44,40.235,45.257,41.002,45.257z"/>		<path style="fill:#005597;" d="M49.145,45.204c-0.21,0.443-0.614,0.695-1.107,0.695c-1.136,0-1.526-1.117-1.526-3.412			c0-2.064,0.445-3.072,1.526-3.072c0.482,0,0.845,0.236,1.092,0.668v-0.59h0.757v6.287h-0.742V45.204z M48.246,45.257			c0.729,0,0.925-0.844,0.925-2.588c0-1.746-0.196-2.598-0.925-2.598c-0.769,0-0.953,0.84-0.953,2.598			C47.294,44.44,47.477,45.257,48.246,45.257z"/>		<path style="fill:#005597;" d="M53.273,40.136v-0.643h0.715v-1.982c0-1.209,0.327-1.773,1.147-1.773			c0.208,0,0.441,0.027,0.704,0.105v0.893c-0.195-0.182-0.378-0.273-0.573-0.273c-0.47,0-0.508,0.365-0.508,1.129v1.902h1.082v0.643			h-1.082v5.645h-0.77v-5.645H53.273z"/>		<path style="fill:#005597;" d="M58.888,45.204c-0.207,0.443-0.611,0.695-1.106,0.695c-1.134,0-1.525-1.117-1.525-3.412			c0-2.064,0.442-3.072,1.525-3.072c0.481,0,0.847,0.236,1.096,0.668v-0.59h0.753v6.287h-0.742V45.204z M57.989,45.257			c0.729,0,0.924-0.844,0.924-2.588c0-1.746-0.195-2.598-0.924-2.598c-0.77,0-0.952,0.84-0.952,2.598			C57.037,44.44,57.22,45.257,57.989,45.257z"/>		<path style="fill:#005597;" d="M63.735,40.558c-0.237-0.289-0.47-0.422-0.769-0.422c-0.823,0-1.147,0.863-1.147,2.65			c0,1.551,0.375,2.34,1.121,2.34c0.325,0,0.586-0.162,0.782-0.475v0.918c-0.288,0.197-0.575,0.289-0.912,0.289			c-1.057,0-1.774-1.09-1.774-3.111c0-2.217,0.649-3.332,1.93-3.332c0.286,0,0.56,0.092,0.769,0.236V40.558z"/>		<path style="fill:#005597;" d="M65.245,42.827v0.209c0,1.432,0.39,2.193,1.004,2.193c0.494,0,0.871-0.553,0.897-1.537h0.744			c-0.065,1.416-0.729,2.207-1.654,2.207c-1.16,0-1.745-1.08-1.745-3.215c0-2.154,0.69-3.31,1.785-3.31			c1.106,0,1.694,1.09,1.694,3.242v0.211H65.245z M66.3,40.083c-0.6,0-1.002,0.709-1.055,2.1h1.992			C67.224,40.806,66.862,40.083,66.3,40.083z"/>		<path style="fill:#005597;" d="M71.276,40.136v-0.643h0.652v-1.76h0.766v1.76h1.029v0.643h-1.029v5.645h-0.766v-5.645H71.276z"/>		<path style="fill:#005597;" d="M76.018,39.362c1.146,0,1.772,1.102,1.772,3.27c0,2.164-0.613,3.268-1.772,3.268			c-1.187,0-1.8-1.09-1.8-3.268C74.218,40.45,74.831,39.362,76.018,39.362z M75.014,42.632c0,1.756,0.274,2.611,0.991,2.611			c0.678,0,0.99-0.855,0.99-2.601c0-1.742-0.313-2.611-0.99-2.611C75.288,40.03,75.014,40.872,75.014,42.632z"/>		<path style="fill:#005597;" d="M81.8,36.421h0.848v9.359H81.8V36.421z"/>		<path style="fill:#005597;" d="M83.794,37.183v-0.762h3.736v0.762h-1.445v8.598h-0.846v-8.598H83.794z"/>		<path style="fill:#005597;" d="M92.013,37.577c0,0.301-0.26,0.578-0.588,0.578c-0.313,0-0.572-0.277-0.572-0.594			c0-0.312,0.248-0.562,0.572-0.562C91.765,36.999,92.013,37.263,92.013,37.577z M91.815,39.493v6.287h-0.779v-6.287H91.815z"/>		<path style="fill:#005597;" d="M95.804,45.204c-0.209,0.443-0.612,0.695-1.107,0.695c-1.134,0-1.525-1.117-1.525-3.412			c0-2.064,0.444-3.072,1.525-3.072c0.482,0,0.859,0.223,1.079,0.643v-4.215h0.769v9.938h-0.74V45.204z M94.905,45.257			c0.729,0,0.924-0.844,0.924-2.588c0-1.746-0.195-2.598-0.924-2.598c-0.771,0-0.953,0.84-0.953,2.598			C93.952,44.44,94.135,45.257,94.905,45.257z"/>		<path style="fill:#005597;" d="M98.589,42.827v0.209c0,1.432,0.392,2.193,1.004,2.193c0.496,0,0.873-0.553,0.898-1.537h0.742			c-0.063,1.416-0.729,2.207-1.654,2.207c-1.158,0-1.744-1.08-1.744-3.215c0-2.154,0.691-3.31,1.783-3.31			c1.107,0,1.693,1.09,1.693,3.242v0.211H98.589z M99.646,40.083c-0.6,0-1.004,0.709-1.057,2.1h1.994			C100.571,40.806,100.205,40.083,99.646,40.083z"/>		<path style="fill:#005597;" d="M104.842,45.204c-0.208,0.443-0.611,0.695-1.106,0.695c-1.133,0-1.523-1.117-1.523-3.412			c0-2.064,0.441-3.072,1.523-3.072c0.482,0,0.848,0.236,1.095,0.668v-0.59h0.753v6.287h-0.741V45.204z M103.942,45.257			c0.73,0,0.926-0.844,0.926-2.588c0-1.746-0.195-2.598-0.926-2.598c-0.768,0-0.949,0.84-0.949,2.598			C102.993,44.44,103.175,45.257,103.942,45.257z"/>		<path style="fill:#005597;" d="M108.06,45.204c0.574,0,0.978-0.408,0.978-0.988c0-0.563-0.419-0.893-1.043-1.43			c-0.73-0.631-1.2-1.074-1.2-1.863c0-0.893,0.641-1.533,1.54-1.533c0.375,0,0.74,0.104,1.105,0.326v0.799			c-0.326-0.313-0.689-0.471-1.029-0.471c-0.508,0-0.885,0.369-0.885,0.855c0,0.525,0.377,0.824,0.937,1.299			c0.809,0.682,1.316,1.154,1.316,2.008c0,0.998-0.704,1.719-1.669,1.719c-0.441,0-0.883-0.158-1.236-0.457v-0.92			C107.265,44.993,107.669,45.204,108.06,45.204z"/>	</g></g><path style="fill:#005092;" d="M50.162,21.51c0.003,2.993-0.887,5.493-2.659,7.507c-0.94,1.084-2.027,1.82-3.256,2.211	c0,0-2.011,0.668-4.22,0.668c-2.208,0-24.862,0.006-24.862,0.006l0.005,7.572l-4.62,0.002l-0.006-20.733	c0-3.936,1.448-6.299,4.354-7.082c0,0,1.231-0.449,4.362-0.449c2.264,0,20.034-0.004,20.034-0.004	c3.543-0.002,6.108,0.687,7.688,2.059C49.098,15.08,50.161,17.834,50.162,21.51z M45.36,21.584	c-0.001-2.103-0.471-3.619-1.407-4.553c-0.938-0.928-2.472-1.396-4.592-1.393l-20.793,0.006c-2.209,0-2.915,0.643-3.257,1.914	c-0.101,0.389-0.146,1.076-0.149,2.055l0.003,7.857l24.203-0.01c0.79,0,1.479-0.072,2.071-0.221	C44.054,26.602,45.361,24.718,45.36,21.584z"/><path style="fill:#005092;" d="M92.351,25.69c-0.002,1.824-0.637,3.342-1.92,4.553c-1.281,1.207-2.861,1.812-4.73,1.812	l-30.368,0.01c-1.427,0.004-2.142-1.07-2.142-2.215c0-1.142,0.76-2.213,2.286-2.213l29.559-0.012	c1.679-0.002,2.516-0.621,2.516-1.861c0.002-1.287-0.841-1.927-2.518-1.927L59.46,23.844c-1.867,0.006-3.459-0.586-4.759-1.771	c-1.309-1.18-1.957-2.688-1.959-4.514c-0.002-1.822,0.65-3.34,1.954-4.553c1.304-1.207,2.886-1.816,4.757-1.816l30.362-0.006	c1.384-0.004,2.069,1.277,2.069,2.287c0,1.01-0.738,2.141-2.214,2.141l-29.538,0.012c-1.668,0.004-2.508,0.646-2.503,1.935	c-0.005,1.238,0.837,1.854,2.508,1.856L85.7,19.406c1.869-0.006,3.445,0.59,4.727,1.772C91.71,22.363,92.351,23.867,92.351,25.69z"	/><circle style="fill:#E50058;" cx="4.211" cy="4.211" r="4.211"/>    <defs>        <linearGradient id="_Linear2" x1="0" y1="0" x2="1" y2="0" gradientUnits="userSpaceOnUse" gradientTransform="matrix(222.638,363.312,-363.312,222.638,309.626,80.9246)"><stop offset="0" style="stop-color:rgb(0,174,239);stop-opacity:1"/><stop offset="1" style="stop-color:rgb(0,83,154);stop-opacity:1"/></linearGradient>        <linearGradient id="_Linear4" x1="0" y1="0" x2="1" y2="0" gradientUnits="userSpaceOnUse" gradientTransform="matrix(222.638,363.312,-363.312,222.638,309.626,80.9246)"><stop offset="0" style="stop-color:rgb(0,174,239);stop-opacity:1"/><stop offset="1" style="stop-color:rgb(0,83,154);stop-opacity:1"/></linearGradient>    </defs></svg>